<svg width="24" height="25" viewBox="0 0 24 25" fill="none" xmlns="http://www.w3.org/2000/svg">
<path d="M13.05 4.64V4.58C13.05 4.3 13.14 4.05 13.32 3.83C13.5 3.61 13.73 3.5 14.01 3.5C14.29 3.5 14.54 3.59 14.76 3.77C14.98 3.95 15.1 4.19 15.12 4.49C15.14 4.79 15.05 5.04 14.85 5.24C14.65 5.44 14.41 5.54 14.13 5.54L13.95 5.6L14.01 5.69L13.95 6.02L13.83 6.98C13.87 7.02 13.89 7.06 13.89 7.1L13.77 7.7C13.73 7.78 13.69 7.84 13.65 7.88L13.59 8.12C13.51 8.44 13.44 8.7 13.38 8.9C13.32 9.1 13.27 9.26 13.23 9.38V9.5C13.19 9.7 13.16 9.86 13.14 9.98C13.12 10.1 13.05 10.3 12.93 10.58C12.85 10.74 12.85 11 12.93 11.36L12.99 11.42C12.99 11.54 13.04 11.68 13.14 11.84C13.24 12 13.29 12.14 13.29 12.26C13.33 13.06 13.27 13.74 13.11 14.3L13.23 14.66C13.71 14.9 13.85 15.16 13.65 15.44L13.95 15.56C14.43 15.8 14.77 16.01 14.97 16.19C15.17 16.37 15.37 16.56 15.57 16.76C15.73 16.8 15.85 16.86 15.93 16.94L16.11 17C16.95 17.56 17.79 18.24 18.63 19.04L18.87 19.22V19.28L18.81 19.4L18.99 19.52H19.05C19.17 19.6 19.25 19.64 19.29 19.64H19.35C19.39 19.64 19.43 19.62 19.47 19.58L19.59 19.52C19.67 19.44 19.75 19.38 19.83 19.34H20.07C20.11 19.34 20.11 19.36 20.07 19.4L19.83 19.52L19.53 19.88H19.95L20.37 19.94C20.49 19.9 20.59 19.86 20.67 19.82L20.97 19.64C21.09 19.6 21.21 19.64 21.33 19.76H21.39C21.43 19.8 21.41 19.86 21.33 19.94L20.61 20.6C20.41 20.76 20.23 20.86 20.07 20.9L19.29 21.44C19.25 21.48 19.21 21.48 19.17 21.44L18.99 21.2L18.87 20.96L18.72 20.75L18.54 20.51L18.39 20.33L18.27 20.18L18.03 20C17.95 20 17.87 19.98 17.79 19.94L17.01 19.34C16.89 19.34 16.75 19.28 16.59 19.16C15.99 18.64 15.59 18.32 15.39 18.2L15.03 17.96L14.31 17.84C14.07 17.8 13.75 17.68 13.35 17.48L12.87 17.24C12.55 17.08 12.33 17 12.21 17L11.97 16.88C11.81 16.84 11.69 16.8 11.61 16.76L11.49 16.64C11.41 16.64 11.33 16.66 11.25 16.7L10.05 17.3L8.55002 17.96C8.15002 18.28 7.77002 18.54 7.41002 18.74L6.75002 19.04L5.73002 19.76C5.65002 19.84 5.57002 19.84 5.49002 19.76L5.37002 19.88C5.25002 19.92 5.17002 19.94 5.13002 19.94L4.89002 20.06V20.18H4.77002L4.65002 20.36C4.57002 20.52 4.49002 20.61 4.41002 20.63C4.33002 20.65 4.28002 20.68 4.26002 20.72C4.24002 20.76 4.22002 20.79 4.20002 20.81L4.08002 20.93L3.90002 21.05L3.63002 21.02L3.27002 21.08L3.03002 21.14C2.83002 21.18 2.67002 21.15 2.55002 21.05C2.43002 20.95 2.33002 20.8 2.25002 20.6C2.17002 20.48 2.21002 20.38 2.37002 20.3L2.43002 20.24C2.47002 20.2 2.53002 20.18 2.61002 20.18H2.97002L3.45002 20L3.69002 19.94C3.69002 19.86 3.71002 19.8 3.75002 19.76C3.79002 19.72 3.85002 19.7 3.93002 19.7V19.64C3.89002 19.56 3.87002 19.48 3.87002 19.4C3.83002 19.32 3.82002 19.26 3.84002 19.22C3.86002 19.18 3.88002 19.16 3.90002 19.16H3.93002L3.99002 19.34C4.03002 19.54 4.09002 19.6 4.17002 19.52L4.23002 19.4C4.27002 19.32 4.33002 19.28 4.41002 19.28L4.53002 19.4L4.65002 19.28L4.59002 19.22C4.59002 19.18 4.61002 19.16 4.65002 19.16L4.89002 18.92C5.09002 18.68 5.33002 18.46 5.61002 18.26C6.17002 17.82 6.77002 17.48 7.41002 17.24C7.61002 17.04 7.83002 16.94 8.07002 16.94C8.23002 16.66 8.47002 16.36 8.79002 16.04C9.07002 15.84 9.27002 15.7 9.39002 15.62C9.47002 15.46 9.57002 15.38 9.69002 15.38H9.75002L9.87002 15.26C9.95002 15.22 10.01 15.18 10.05 15.14V14.84C10.05 14.64 10.07 14.48 10.11 14.36C10.15 14.24 10.25 14.18 10.41 14.18L10.65 13.94C10.57 13.78 10.53 13.6 10.53 13.4H10.47C10.39 13.28 10.35 13.16 10.35 13.04C10.23 12.84 10.15 12.68 10.11 12.56H9.93002C9.89002 12.68 9.79002 12.76 9.63002 12.8L9.57002 12.92C9.41002 13.2 9.27002 13.41 9.15002 13.55C9.03002 13.69 8.81002 13.86 8.49002 14.06C8.29002 14.26 8.15002 14.48 8.07002 14.72C8.03002 14.84 8.03002 14.96 8.07002 15.08L8.01002 15.2H8.07002C8.07002 15.28 8.09002 15.32 8.13002 15.32H8.19002C8.27002 15.36 8.31002 15.41 8.31002 15.47C8.31002 15.53 8.25002 15.55 8.13002 15.53C8.01002 15.51 7.92002 15.47 7.86002 15.41C7.80002 15.35 7.75002 15.32 7.71002 15.32L7.53002 15.5C7.45002 15.62 7.37002 15.67 7.29002 15.65C7.21002 15.63 7.19002 15.6 7.23002 15.56L7.29002 15.5C7.33002 15.42 7.33002 15.38 7.29002 15.38L6.81002 15.5C6.77002 15.54 6.72002 15.54 6.66002 15.5C6.60002 15.46 6.61002 15.42 6.69002 15.38L6.99002 15.26C6.99002 15.22 6.97002 15.2 6.93002 15.2C6.77002 15.28 6.61002 15.3 6.45002 15.26L6.15002 15.2L6.09002 15.14C6.09002 15.1 6.11002 15.08 6.15002 15.08C6.31002 15.12 6.51002 15.1 6.75002 15.02L7.17002 14.84L7.65002 14.3L7.71002 14.18C7.87002 13.86 8.04002 13.57 8.22002 13.31C8.40002 13.05 8.59002 12.84 8.79002 12.68L8.85002 12.44C8.93002 12.28 9.01002 12.14 9.09002 12.02C9.17002 11.9 9.27002 11.74 9.39002 11.54L9.57002 11.3C9.73002 11.06 9.91002 10.94 10.11 10.94L10.29 10.76C10.33 10.72 10.35 10.66 10.35 10.58L10.47 10.46L10.41 10.4C10.17 10.2 10.05 10.02 10.05 9.86C10.01 9.58 10.1 9.34 10.32 9.14C10.54 8.94 10.76 8.85 10.98 8.87C11.2 8.89 11.37 8.96 11.49 9.08L11.61 9.2C11.65 9.2 11.67 9.22 11.67 9.26L11.91 9.38V9.56C11.99 9.64 12.03 9.7 12.03 9.74C12.11 9.62 12.23 9.48 12.39 9.32L12.69 8.36C12.69 8.2 12.73 8.04 12.81 7.88L12.93 7.7V7.58L13.11 6.86H13.23L13.41 6.14C13.45 6.02 13.45 5.88 13.41 5.72L13.17 5.12L13.05 4.64Z" fill="#111111"/>
</svg>
