<svg width="24" height="25" viewBox="0 0 24 25" fill="none" xmlns="http://www.w3.org/2000/svg">
<path d="M8.25 8.75V6.5C8.25 5.90326 8.48705 5.33097 8.90901 4.90901C9.33097 4.48705 9.90326 4.25 10.5 4.25H13.5C14.0967 4.25 14.669 4.48705 15.091 4.90901C15.5129 5.33097 15.75 5.90326 15.75 6.5C15.75 7.09674 15.5129 7.66903 15.091 8.09099C14.669 8.51295 14.0967 8.75 13.5 8.75H3.75V17C3.75 17.9946 4.14509 18.9484 4.84835 19.6517C5.55161 20.3549 6.50544 20.75 7.5 20.75H16.5C17.4946 20.75 18.4484 20.3549 19.1517 19.6517C19.8549 18.9484 20.25 17.9946 20.25 17V8.75H17.5" stroke="#111111" stroke-width="1.5"/>
</svg>
