<svg width="36" height="37" viewBox="0 0 36 37" fill="none" xmlns="http://www.w3.org/2000/svg">
<path d="M22.794 10.25C24.118 10.25 25.362 10.766 26.298 11.701C27.2262 12.6309 27.7475 13.8911 27.7475 15.205C27.7475 16.5189 27.2262 17.7791 26.298 18.709L18 27.008L9.70102 18.709C8.77313 17.7791 8.25201 16.5191 8.25201 15.2055C8.25201 13.8919 8.77313 12.6319 9.70102 11.702C10.1601 11.2403 10.7061 10.8742 11.3076 10.625C11.909 10.3758 12.554 10.2483 13.205 10.25C14.529 10.25 15.773 10.766 16.709 11.701L17.469 12.461L18 12.992L18.53 12.461L19.29 11.701C19.7492 11.2396 20.2953 10.8738 20.8968 10.6248C21.4982 10.3757 22.1431 10.2483 22.794 10.25Z" stroke="#111111" stroke-width="1.5"/>
</svg>
