<svg width="24" height="24" viewBox="0 0 24 24" fill="none" xmlns="http://www.w3.org/2000/svg">
<path d="M13.962 16.296C12.916 16.9223 11.7192 17.2521 10.5 17.25C9.6134 17.2512 8.7353 17.0772 7.91618 16.7379C7.09707 16.3986 6.35308 15.9008 5.72701 15.273C5.09924 14.6469 4.6014 13.9029 4.26212 13.0838C3.92284 12.2647 3.7488 11.3866 3.75001 10.5C3.75001 8.636 4.50501 6.949 5.72701 5.727C6.35308 5.09923 7.09707 4.60139 7.91618 4.26211C8.7353 3.92283 9.6134 3.74879 10.5 3.75C12.364 3.75 14.051 4.505 15.273 5.727C15.9008 6.35308 16.3986 7.09706 16.7379 7.91618C17.0772 8.73529 17.2512 9.61339 17.25 10.5C17.2517 11.6974 16.9338 12.8736 16.329 13.907C15.812 14.789 15.895 15.895 16.618 16.618L20.471 20.471" stroke="#111111" stroke-width="1.5"/>
</svg>
